<svg xmlns="http://www.w3.org/2000/svg" width="288.169" height="288.063" viewBox="0 0 288.169 288.063">
  <g id="available_for_work" data-name="available for work" transform="translate(29.797 120.822) rotate(40)">
    <path id="Path_6612" data-name="Path 6612" d="M114.252,36.821l.218,2.381-7.128.654.19,2.072,7.128-.654.2,2.227-8.535.783.19,2.072,10.994-1.008-.993-10.823-11.148,1.023.19,2.072ZM82.743,42.333l-.306,2.121,10.88,1.57L94.87,35.267l-2.459-.355-.581,4.026-7.1-1.025-.306,2.121,7.1,1.025-.359,2.489Zm45.463-8.318,2.163,8.454,2.407-.616-2.694-10.53-9.853,2.521.531,2.076ZM74.629,30.7c-4.033-1.3-7.233-.086-8.351,3.371s.765,6.317,4.8,7.621,7.234.086,8.351-3.371S78.662,32,74.629,30.7Zm-.659,2.039c2.571.831,3.765,2.588,3.049,4.8s-2.728,2.937-5.284,2.11-3.765-2.588-3.049-4.8S71.414,31.912,73.97,32.738ZM139.2,33.959a2.357,2.357,0,0,0-1.225,3.187c.718,1.6,2.638,1.863,5.019.8l6.815-3.055-4.446-9.918-7.382,3.309c-2.381,1.067-3.451,2.7-2.663,4.461C136.022,34.312,137.6,34.573,139.2,33.959ZM53.119,21.1l1.066,5.006a3.455,3.455,0,0,0-4.3,1.526c-1.141,2.066.019,4.108,2.343,5.392l6.565,3.626,5.255-9.514-2.161-1.194L60.1,29.178l-3.439-1.9-.945-4.744Zm93.649,13-4.208,1.887c-1.232.552-2.092.683-2.5-.224s.264-1.462,1.5-2.015l4.208-1.886ZM59.121,30.979l-1.472,2.664-4.295-2.372c-1.142-.631-1.834-1.368-1.249-2.428s1.578-.866,2.72-.236Zm80.127-1.125,4.675-2.1,1.067,2.38-4.676,2.1c-1.275.572-2.108.724-2.559-.282S137.972,30.426,139.248,29.854Zm11.414-8.06-2.209,1.529,10.923,5.657,2.233-1.547-1.45-12.215-2.183,1.511.351,2.552-5.4,3.739Zm7.972-.269.668,4.92-4.37-2.357ZM26.678,12.773l7.528-3.9L30.68,16.654l1.728,1.676,7.684-3.752L36.408,22.21l1.872,1.816,4.714-10.569L41.2,11.717,33.42,15.591l3.657-7.874L35.26,5.955l-10.42,5.034ZM168.91,9.833l6.039,6.3,1.793-1.719-7.52-7.847L161.879,13.6l1.483,1.547Zm3.5-7.067,8.426,6.865,1.57-1.926L173.977.84ZM27.294-4.939c-2.374-3.512-5.645-4.524-8.655-2.489S15.35-1.98,17.724,1.531s5.645,4.524,8.655,2.489S29.668-1.428,27.294-4.939Zm-1.775,1.2C27.032-1.5,26.891.619,24.961,1.923S21,2.556,19.5.331s-1.372-4.358.558-5.662S24.014-5.964,25.519-3.739Zm152.212-.335L176.318-1.79l12.274.82,1.43-2.311L183.81-13.9l-1.4,2.258,1.342,2.2L180.3-3.855Zm7.2-3.433,2.579,4.243-4.948-.414ZM16.244-25.755,14-21.153A3.455,3.455,0,0,0,9.674-22.6C7.5-21.672,7.16-19.349,8.2-16.907l2.942,6.9,10-4.263-.968-2.271-3.4,1.449-1.541-3.613,2.175-4.32Zm183.126,2.8-12.139.9-1.005,2.424,7.941,9.226,1.029-2.481-6.2-6.99,9.33-.569ZM14.894-14.275l-2.8,1.194L10.17-17.594c-.512-1.2-.6-2.207.51-2.682s1.777.289,2.289,1.488ZM12.271-41.786,7.019-35.118l-5.289-4,.714,3.182,6.792,5.1L3.857-29.635,4.4-27.211,15.006-29.59l-.544-2.424-2.636.591-2.97-2.246,4.067-5.209ZM190.2-30.426l-.617,2.615,11.9-3.114.622-2.645-9.258-8.1-.609,2.584,1.971,1.66L192.7-31.033Zm5.738-5.539,3.791,3.206L194.9-31.582Zm-2.3-19.071h11.3V-56.33h-11.3ZM0-55.036H11.3V-56.33H0ZM192.8-69.58l5.251-6.668,5.289,4-.713-3.182-6.793-5.1,5.379-1.206-.543-2.425-10.606,2.379.545,2.424,2.636-.591,2.971,2.246-4.068,5.209ZM14.873-80.94l.616-2.615L3.589-80.44,2.966-77.8l9.258,8.1.609-2.584-1.97-1.66,1.506-6.393ZM9.133-75.4,5.342-78.607l4.824-1.177Zm179.694-10.21,2.241-4.6a3.454,3.454,0,0,0,4.329,1.445c2.171-.925,2.514-3.249,1.472-5.692l-2.942-6.9-10,4.263.969,2.271,3.4-1.449,1.541,3.613-2.175,4.32ZM5.7-88.411l12.139-.9,1.005-2.423-7.94-9.227L9.877-98.479l6.195,6.99-9.329.568Zm184.476-8.681,2.8-1.193,1.924,4.513c.512,1.2.6,2.206-.51,2.682s-1.778-.289-2.289-1.489ZM27.34-107.292l1.413-2.285L16.48-110.4l-1.43,2.311,6.212,10.618,1.4-2.258-1.341-2.2,3.456-5.585Zm150.437.864c2.374,3.512,5.645,4.523,8.655,2.489s3.289-5.447.915-8.959-5.645-4.525-8.655-2.489S175.4-109.939,177.778-106.428ZM20.14-103.859,17.562-108.1l4.948.414Zm159.413-3.768c-1.514-2.238-1.372-4.358.558-5.662s3.958-.634,5.462,1.592,1.373,4.358-.556,5.662S181.058-105.4,179.553-107.627Zm-146.889-6.5L24.238-121l-1.569,1.927,8.426,6.865Zm145.73-10.007-7.528,3.9,3.526-7.784-1.727-1.676-7.683,3.752,3.682-7.633-1.872-1.817-4.714,10.57,1.793,1.74,7.782-3.874-3.658,7.873,1.817,1.762,10.421-5.035ZM36.161-121.2l-6.038-6.3-1.793,1.72,7.521,7.846,7.342-7.038-1.483-1.546Zm18.25-11.962,2.208-1.528L45.7-140.346,43.462-138.8l1.451,12.214L47.1-128.1l-.351-2.552,5.4-3.738Zm97.542.694-1.066-5.006a3.455,3.455,0,0,0,4.3-1.526c1.141-2.066-.019-4.108-2.343-5.392l-6.565-3.627-5.255,9.514,2.161,1.194,1.787-3.235,3.438,1.9.946,4.743Zm-105.514-.424-.668-4.919,4.37,2.357Zm19.434-12.434a2.357,2.357,0,0,0,1.226-3.187c-.718-1.6-2.639-1.862-5.019-.8l-6.815,3.055,4.446,9.919,7.382-3.31c2.38-1.067,3.45-2.7,2.663-4.46C69.05-145.678,67.469-145.94,65.873-145.326Zm-.048,4.106-4.676,2.1-1.067-2.38,4.676-2.1c1.275-.572,2.109-.725,2.56.282C67.761-142.327,67.1-141.791,65.824-141.221Zm80.126-1.126,1.472-2.663,4.294,2.372c1.141.631,1.833,1.368,1.249,2.429s-1.579.866-2.72.235Zm-15.507.281c4.033,1.3,7.234.087,8.351-3.371s-.765-6.317-4.8-7.621-7.233-.087-8.351,3.371S126.409-143.369,130.443-142.066Zm-53.578-3.315L74.7-153.835l-2.407.616,2.694,10.53,9.853-2.522-.531-2.075ZM58.3-145.471l4.208-1.887c1.233-.553,2.093-.683,2.5.224s-.263,1.462-1.5,2.015l-4.208,1.887Zm72.8,1.366c-2.571-.831-3.766-2.588-3.049-4.8s2.727-2.937,5.284-2.11,3.765,2.588,3.048,4.8S133.658-143.278,131.1-144.1Zm-40.283-4.082-.218-2.382,7.128-.653-.19-2.072-7.128.653-.2-2.227,8.535-.783-.19-2.072-10.994,1.008.993,10.824L99.7-146.913l-.19-2.072Zm31.509-5.512.306-2.121-10.88-1.571L110.2-146.633l2.459.355.581-4.025,7.1,1.025.306-2.121-7.1-1.025.359-2.489Z" fill="#f23333"/>
    <rect id="Rectangle_1329" data-name="Rectangle 1329" width="304.437" height="203.143" transform="translate(0 -157.363)" fill="#fff" opacity="0"/>
  </g>
</svg>
